<?xml version="1.0" standalone="no"?>
<!DOCTYPE svg PUBLIC "-//W3C//DTD SVG 20010904//EN"
 "http://www.w3.org/TR/2001/REC-SVG-20010904/DTD/svg10.dtd">
<svg version="1.0" xmlns="http://www.w3.org/2000/svg"
 width="828.000000pt" height="227.000000pt" viewBox="0 0 828.000000 227.000000"
 preserveAspectRatio="xMidYMid meet">

<g transform="translate(0.000000,227.000000) scale(0.100000,-0.100000)"
fill="#000000" stroke="none">
<path d="M6728 2239 c34 -16 101 -39 148 -51 l85 -21 20 20 20 20 -72 32 c-39
18 -81 31 -93 29 -14 -2 1 -12 49 -32 80 -34 80 -34 73 -41 -3 -3 -53 13 -113
35 -59 22 -124 40 -144 39 -36 -1 -36 -1 27 -30z"/>
<path d="M7140 2180 c40 -22 34 -24 -28 -10 -24 6 -48 7 -54 4 -6 -4 -26 -8
-44 -9 -18 -1 -40 -8 -49 -15 -11 -9 -61 -13 -173 -14 -149 -2 -192 -7 -192
-27 0 -4 35 -28 78 -53 101 -58 116 -70 67 -50 -124 50 -246 94 -259 94 -9 0
-16 -6 -16 -14 0 -8 57 -39 142 -76 198 -88 268 -107 268 -75 0 8 -5 15 -11
15 -8 0 -8 4 -1 13 9 10 33 2 119 -40 59 -29 115 -52 123 -53 8 0 26 18 40 39
24 39 24 39 53 25 16 -9 47 -16 70 -17 l42 -2 20 80 c27 104 29 106 65 94 16
-6 41 -9 57 -7 20 2 -22 20 -143 61 -177 59 -238 72 -174 37z m75 -60 c-3 -5
5 -26 19 -47 14 -20 24 -38 23 -39 -1 -1 -29 -5 -62 -9 -53 -6 -58 -5 -46 9 7
9 11 23 7 31 -3 9 0 15 8 15 7 0 18 11 24 25 6 14 16 25 22 25 6 0 8 -4 5 -10z
m-80 -20 c8 -13 -5 -13 -25 0 -13 8 -13 10 2 10 9 0 20 -4 23 -10z m-103 -37
c-2 -16 -9 -34 -15 -41 -12 -16 31 -82 50 -75 7 3 13 0 13 -6 0 -19 -19 -12
-58 18 -20 16 -54 33 -75 36 -20 4 -40 11 -43 16 -3 5 3 6 13 2 16 -6 16 -5 4
10 -12 15 -8 19 30 35 90 39 87 38 81 5z"/>
<path d="M6335 2051 c-54 -5 -61 -9 -83 -41 -25 -38 -24 -75 3 -117 13 -19 24
-23 68 -23 144 1 185 45 136 147 -16 32 -26 43 -42 41 -12 -1 -49 -4 -82 -7z
m63 -53 c7 -7 12 -21 12 -33 0 -30 -19 -45 -56 -45 -32 0 -44 13 -44 50 0 34
62 54 88 28z"/>
<path d="M6048 2033 l-58 -4 0 -89 0 -90 35 0 35 0 1 55 c1 30 2 61 3 68 1 15
66 23 66 8 0 -11 -13 -15 -37 -12 -22 3 -14 -19 23 -65 30 -36 42 -44 70 -44
38 0 41 6 18 38 -15 21 -15 25 0 41 19 21 21 72 4 89 -12 12 -38 12 -160 5z"/>
<path d="M5929 2022 c-24 -3 -27 -9 -33 -52 -8 -58 2 -130 18 -130 6 0 21 3
34 6 21 6 22 12 22 90 0 45 -3 84 -7 86 -5 2 -20 2 -34 0z"/>
<path d="M5749 2013 c-44 -3 -61 -9 -80 -29 -29 -31 -31 -89 -5 -129 18 -28
18 -28 103 -22 79 6 113 17 113 38 0 5 -31 9 -69 9 -39 0 -73 5 -76 10 -4 6
13 10 43 10 36 0 52 4 56 16 9 24 9 24 -39 24 -31 0 -47 -5 -54 -17 -9 -16
-10 -16 -11 4 0 29 28 43 84 43 35 0 48 5 56 19 18 34 25 33 -121 24z"/>
<path d="M5330 1980 c-8 -5 -10 -33 -6 -90 2 -45 7 -84 9 -87 3 -2 17 -1 31 3
27 6 27 7 24 93 -3 80 -4 86 -25 87 -12 1 -27 -2 -33 -6z"/>
<path d="M5416 1982 c-4 -6 -2 -139 3 -166 2 -11 183 4 199 17 26 21 5 30 -61
28 l-67 -2 0 65 0 66 -34 0 c-19 0 -37 -3 -40 -8z"/>
<path d="M7475 1965 c-35 -34 -34 -86 1 -114 54 -43 120 -16 131 52 5 31 1 42
-17 62 -32 34 -82 34 -115 0z m86 5 c20 -11 26 -45 9 -55 -6 -3 -7 -17 -4 -31
6 -25 -9 -34 -22 -13 -5 8 -10 6 -16 -5 -16 -28 -28 -7 -28 48 0 68 14 81 61
56z"/>
<path d="M7525 1939 c-10 -15 1 -23 20 -15 9 3 13 10 10 16 -8 13 -22 13 -30
-1z"/>
<path d="M5150 1973 c-30 -3 -60 -9 -67 -15 -17 -13 -17 -84 -1 -95 7 -4 43
-6 80 -4 90 3 88 -14 -2 -23 -57 -6 -72 -11 -81 -28 -11 -21 -11 -21 97 -15
112 7 124 12 124 55 0 52 -15 62 -85 55 -42 -4 -65 -2 -65 4 0 13 34 23 76 23
32 0 54 15 54 37 0 13 -11 14 -130 6z"/>
<path d="M4870 1951 l-45 -6 -7 -50 c-3 -27 -7 -67 -7 -88 -1 -38 -1 -38 37
-35 33 3 37 6 40 34 3 29 7 32 40 37 47 5 52 2 52 -34 0 -25 4 -29 28 -29 15
0 32 4 37 8 6 4 11 44 11 90 l1 82 -71 -2 c-39 0 -91 -4 -116 -7z m108 -53
c-3 -7 -18 -15 -34 -16 -16 -2 -35 -8 -41 -14 -10 -8 -13 -5 -13 9 0 28 8 33
53 33 26 0 37 -4 35 -12z"/>
<path d="M4735 1943 c-11 -1 -55 -5 -98 -8 l-78 -7 3 -86 3 -87 35 0 35 0 3
68 3 67 42 0 c39 -1 40 -2 23 -15 -10 -8 -22 -12 -27 -10 -4 3 -10 1 -14 -5
-3 -6 10 -30 31 -55 27 -34 43 -45 65 -45 38 0 45 17 19 45 -20 21 -21 25 -7
30 32 13 32 99 -1 107 -10 2 -26 3 -37 1z"/>
<path d="M4332 1913 c-22 -4 -23 -8 -20 -91 l3 -86 90 3 c50 1 101 8 115 15
23 11 25 17 23 66 -4 103 -1 100 -101 99 -48 -1 -97 -4 -110 -6z m138 -48 c0
-10 -10 -15 -30 -15 -16 0 -30 -2 -30 -4 0 -2 -3 -11 -6 -20 -5 -13 1 -16 30
-16 44 0 47 -15 5 -24 -56 -11 -59 -9 -59 37 0 24 2 46 4 48 3 2 23 5 45 7 31
2 41 -1 41 -13z"/>
<path d="M4018 1893 c-46 -5 -78 -42 -78 -90 0 -35 15 -72 34 -86 13 -9 154 2
178 14 22 12 43 79 34 112 -13 55 -41 63 -168 50z m90 -76 c5 -39 -15 -59 -52
-55 -26 2 -32 8 -34 31 -5 39 15 59 52 55 26 -2 32 -8 34 -31z"/>
<path d="M6879 1881 c13 -10 48 -26 78 -35 44 -14 52 -20 43 -31 -6 -8 -104
-75 -218 -151 -254 -168 -497 -349 -750 -557 -34 -29 -77 -60 -95 -70 l-32
-17 -107 109 c-63 64 -108 118 -108 129 0 13 102 110 301 288 248 221 297 270
278 272 -13 1 -134 -6 -269 -17 l-245 -19 -136 -143 c-74 -78 -140 -140 -145
-136 -6 3 -46 65 -90 137 -76 126 -80 130 -113 130 -40 0 -565 -40 -568 -44
-1 -1 74 -96 167 -211 96 -118 170 -218 170 -230 0 -19 -64 -82 -175 -170 -27
-22 -105 -86 -173 -142 -68 -57 -127 -103 -132 -103 -4 0 -13 46 -20 103 -60
504 -69 548 -137 627 -48 56 -86 73 -158 74 -44 0 -76 -7 -118 -27 -31 -14
-245 -158 -475 -318 -229 -161 -446 -313 -482 -337 -36 -25 -98 -67 -138 -95
l-73 -50 -46 46 c-40 39 -45 48 -34 61 8 9 21 16 31 16 48 0 151 43 211 88
141 107 194 258 133 380 -28 57 -66 91 -135 121 -85 38 -144 40 -454 20 -807
-54 -987 -67 -991 -72 -3 -3 38 -53 90 -111 135 -150 131 -142 108 -207 -11
-30 -67 -187 -125 -349 -58 -162 -110 -308 -116 -324 -7 -16 -8 -32 -4 -36 9
-8 514 33 530 43 6 4 41 85 79 182 38 96 71 175 74 174 9 0 235 -320 235 -331
0 -7 -99 -86 -219 -177 l-220 -166 45 -3 c24 -1 157 6 295 16 l250 18 120 95
c65 53 232 185 369 294 138 109 291 230 340 270 375 298 421 328 475 305 52
-22 117 -217 83 -251 -8 -8 -273 -32 -438 -39 -22 0 -428 -322 -418 -330 4 -4
58 -3 118 1 137 10 917 65 1205 84 118 8 251 18 295 21 l79 6 66 62 c299 281
311 291 318 280 4 -5 51 -74 105 -152 54 -78 101 -143 105 -146 4 -2 130 4
280 15 197 14 277 24 290 34 29 24 347 272 552 432 297 230 325 238 368 103
31 -101 39 -158 21 -165 -8 -2 -110 -11 -227 -18 l-212 -14 -128 -98 c-70 -54
-164 -125 -209 -159 -45 -33 -82 -65 -83 -70 0 -5 40 -6 93 -3 343 24 740 51
962 65 l260 17 3 165 c9 455 -58 736 -193 816 -51 30 -102 31 -181 4 -43 -15
-64 -18 -79 -11 -33 17 -143 51 -162 51 -15 0 -14 -3 6 -19z m-4203 -567 c21
-11 47 -31 58 -46 16 -23 18 -31 8 -53 -20 -44 -82 -65 -197 -65 -138 0 -175
7 -175 33 0 27 36 100 60 122 42 38 177 43 246 9z m4726 -228 c11 -15 10 -40
-2 -71 -7 -19 -6 -35 4 -60 9 -22 11 -37 5 -41 -14 -8 -39 15 -39 36 0 10 -7
23 -15 30 -12 10 -13 7 -9 -22 6 -44 -8 -67 -31 -48 -13 10 -15 29 -13 94 3
74 5 81 28 93 26 13 60 8 72 -11z m-147 -20 c22 -33 15 -144 -10 -162 -16 -12
-54 -10 -77 3 -10 5 -11 167 -1 176 3 4 21 7 39 7 24 0 38 -7 49 -24z m-227
-91 c-2 -49 -7 -80 -15 -82 -7 -3 -13 9 -15 29 l-4 33 -19 -32 c-11 -18 -23
-33 -27 -33 -4 0 -16 17 -27 37 l-19 37 -7 -42 c-12 -74 -30 -45 -30 49 0 70
3 84 17 87 10 2 19 -6 23 -20 9 -33 38 -88 46 -88 4 0 15 21 25 48 37 99 56
90 52 -23z m-216 68 c14 -12 18 -31 18 -77 0 -79 -19 -111 -63 -102 -48 10
-57 23 -57 87 0 79 15 109 53 109 17 0 39 -7 49 -17z m-146 -7 c27 -21 5 -43
-24 -25 -29 18 -35 9 -39 -61 -4 -54 -2 -60 15 -60 11 0 22 7 26 15 7 19 25
19 33 0 9 -25 -26 -55 -63 -55 -42 0 -54 21 -54 96 0 45 5 63 22 81 25 26 55
30 84 9z m444 -146 c-21 -13 -44 8 -28 27 10 12 14 12 27 -2 14 -14 14 -17 1
-25z m-590 -15 c10 -12 9 -16 -5 -21 -19 -8 -40 9 -31 25 10 15 21 14 36 -4z"/>
<path d="M7340 1040 c0 -28 2 -30 20 -20 11 6 20 20 20 30 0 13 -7 20 -20 20
-16 0 -20 -7 -20 -30z"/>
<path d="M7190 1031 c0 -25 3 -28 25 -23 14 2 25 8 25 12 0 22 -14 40 -31 40
-14 0 -19 -7 -19 -29z"/>
<path d="M7190 948 c0 -21 5 -28 20 -28 16 0 40 26 40 43 0 3 -13 7 -30 9 -27
4 -30 2 -30 -24z"/>
<path d="M6757 1023 c-2 -4 -8 -34 -11 -65 -7 -58 -7 -58 19 -58 26 0 26 1 23
62 -3 55 -17 84 -31 61z"/>
<path d="M3842 1879 c-86 -7 -122 -18 -122 -40 0 -5 18 -9 40 -9 l40 0 0 -66
0 -65 38 3 37 3 3 68 c3 63 4 67 27 67 23 0 54 35 38 42 -5 2 -50 1 -101 -3z"/>
<path d="M3558 1861 c-42 -3 -80 -10 -85 -14 -4 -5 -8 -43 -8 -85 l0 -77 38
-3 c36 -3 37 -3 37 32 0 36 0 36 45 36 44 0 45 -1 45 -31 0 -29 2 -30 36 -27
l35 3 2 85 2 85 -35 1 c-19 1 -70 -2 -112 -5z m72 -56 c0 -10 -10 -15 -27 -15
-14 0 -35 -7 -45 -17 -17 -15 -18 -14 -18 15 0 31 1 32 45 32 33 0 45 -4 45
-15z"/>
<path d="M3377 1843 c-4 -3 -7 -24 -7 -45 0 -21 -4 -38 -8 -38 -5 0 -25 18
-46 40 -29 32 -44 40 -71 40 -33 0 -35 -2 -35 -35 0 -43 -10 -44 -32 -5 -16
27 -22 30 -70 30 -72 -1 -127 -14 -143 -37 -22 -29 -19 -109 5 -133 19 -19 29
-20 98 -14 64 5 81 10 100 31 12 13 22 31 22 39 0 8 5 12 10 9 6 -3 10 -19 10
-36 0 -27 3 -29 35 -29 l35 0 0 50 c0 28 2 50 5 50 2 0 23 -20 46 -45 33 -36
48 -45 74 -45 18 0 35 6 38 13 2 6 5 47 5 90 l1 77 -33 0 c-18 0 -36 -3 -39
-7z m-259 -96 c5 -38 -15 -59 -51 -55 -40 4 -55 28 -39 63 10 23 17 26 50 23
32 -3 37 -7 40 -31z"/>
<path d="M2850 1813 c-100 -6 -120 -12 -139 -45 -18 -28 -19 -29 -26 -9 -10
33 -34 39 -130 32 l-90 -6 -3 -87 -3 -88 36 0 c33 0 35 2 35 34 l0 34 66 4
c49 3 69 9 76 21 13 25 23 21 26 -10 4 -50 27 -63 111 -63 53 0 83 5 99 16 35
25 16 36 -47 29 -46 -5 -60 -3 -70 9 -12 14 -8 16 37 16 46 0 62 9 62 36 0 2
-23 4 -51 4 -64 0 -56 15 13 24 30 4 57 14 64 24 12 16 10 34 -4 30 -4 -1 -32
-3 -62 -5z m-237 -78 c-1 -5 -13 -12 -25 -13 -13 -2 -31 -11 -40 -19 -17 -15
-18 -14 -18 9 0 13 3 28 7 32 11 10 78 3 76 -9z"/>
<path d="M2345 1739 l-29 -41 -31 37 c-25 29 -37 36 -61 33 l-29 -3 0 -85 0
-85 33 -3 c31 -3 32 -2 32 37 0 46 17 54 39 20 l13 -22 24 29 c21 26 23 27 25
9 0 -11 2 -29 3 -40 1 -16 8 -20 36 -20 l35 0 0 85 0 85 -31 3 c-26 3 -35 -3
-59 -39z"/>
<path d="M1997 1753 c-41 -4 -49 -8 -58 -30 -5 -15 -9 -54 -7 -87 l3 -61 35 0
c32 0 35 3 38 32 3 28 8 33 37 39 43 8 55 0 55 -37 0 -28 2 -30 33 -27 l32 3
3 88 3 87 -63 -2 c-35 -1 -85 -3 -111 -5z m101 -55 c-3 -7 -18 -15 -34 -16
-16 -2 -35 -8 -41 -14 -10 -8 -13 -4 -13 16 0 24 3 26 46 26 32 0 44 -4 42
-12z"/>
<path d="M1850 1743 c-114 -8 -129 -13 -146 -45 -18 -34 -14 -98 6 -123 9 -11
34 -15 87 -15 79 0 113 11 113 37 0 13 -9 15 -61 9 -68 -8 -89 2 -89 40 0 31
36 54 85 54 23 0 46 5 53 12 13 13 16 39 5 36 -5 -1 -28 -3 -53 -5z"/>
<path d="M1270 1670 c0 -11 8 -23 18 -26 107 -36 201 -106 228 -171 14 -33 46
-45 59 -23 11 17 -32 93 -77 137 -83 80 -228 133 -228 83z"/>
<path d="M1070 1585 c-18 -22 -5 -32 63 -50 135 -35 256 -134 317 -259 22 -44
39 -66 50 -66 32 0 30 28 -6 98 -80 155 -213 257 -375 287 -26 5 -39 2 -49
-10z"/>
<path d="M784 1487 c-10 -26 3 -34 63 -41 175 -21 327 -104 430 -237 25 -32
52 -69 59 -81 20 -34 80 -158 97 -200 17 -40 50 -52 61 -22 9 24 -47 149 -113
250 -101 158 -211 250 -361 305 -98 35 -227 50 -236 26z"/>
<path d="M540 1355 c-103 -32 -136 -121 -85 -228 154 -327 497 -597 760 -601
67 -1 86 3 116 21 43 27 70 83 72 149 2 81 -7 99 -81 150 -37 26 -91 65 -120
87 -30 21 -56 36 -59 33 -3 -3 5 -26 17 -51 12 -26 25 -74 27 -108 5 -58 3
-64 -22 -90 -40 -39 -64 -42 -147 -16 -146 46 -279 162 -349 305 -74 149 -2
216 191 181 l45 -9 -100 96 -100 95 -60 0 c-33 0 -80 -7 -105 -14z"/>
<path d="M760 975 c0 -52 151 -180 225 -192 32 -5 35 -3 35 18 0 66 -157 199
-235 199 -20 0 -25 -5 -25 -25z"/>
<path d="M482 884 c-2 -43 0 -48 55 -100 59 -55 86 -66 97 -39 6 16 -121 184
-140 185 -6 0 -12 -20 -12 -46z"/>
<path d="M7397 793 c-37 -6 -65 -47 -46 -69 7 -9 23 -20 36 -25 15 -5 21 -14
17 -24 -8 -20 -34 -19 -34 1 0 10 -7 14 -22 12 -17 -2 -23 -10 -23 -28 0 -24
3 -25 54 -25 40 1 57 6 67 20 23 31 17 56 -16 68 -18 7 -29 18 -28 26 4 21 28
26 28 6 0 -25 44 -15 48 11 2 15 -4 23 -20 28 -13 3 -25 5 -28 4 -3 0 -17 -3
-33 -5z"/>
<path d="M7244 780 c-17 -4 -36 -10 -42 -14 -15 -9 -45 -113 -38 -132 6 -16
77 -19 106 -4 17 9 50 97 50 133 0 18 -34 25 -76 17z m26 -26 c0 -29 -26 -97
-41 -105 -14 -7 -19 -6 -19 4 0 19 21 79 33 95 10 12 27 17 27 6z"/>
<path d="M7034 757 c-16 -44 -43 -141 -39 -147 7 -11 117 8 126 22 17 27 41
109 35 123 -7 20 -114 21 -122 2z m76 -20 c0 -24 -35 -97 -47 -97 -11 0 -14 7
-9 25 13 51 26 75 41 75 8 0 15 -1 15 -3z"/>
<path d="M6898 743 c-19 -23 -77 -120 -81 -134 -4 -20 34 -18 51 2 20 23 52
25 52 3 0 -10 7 -14 23 -12 20 3 22 9 25 81 l3 77 -29 0 c-16 0 -36 -8 -44
-17z m22 -63 c0 -11 -7 -20 -15 -20 -13 0 -14 4 -5 20 6 11 13 20 15 20 3 0 5
-9 5 -20z"/>
<path d="M6718 743 c-21 -5 -22 -13 -6 -48 10 -23 8 -29 -20 -58 -51 -53 -34
-80 22 -36 23 18 27 18 32 5 6 -16 54 -23 54 -7 0 4 -5 23 -11 40 -11 30 -9
35 20 65 17 17 31 35 31 39 0 15 -38 6 -55 -14 -19 -20 -19 -20 -35 -1 -8 10
-23 17 -32 15z"/>
<path d="M480 704 c0 -36 5 -44 37 -67 27 -19 40 -24 50 -16 16 14 6 33 -46
84 l-41 39 0 -40z"/>
<path d="M6627 733 c-5 -8 -47 -142 -47 -149 0 -2 11 -4 24 -4 21 0 27 9 45
67 12 36 21 72 21 80 0 14 -36 18 -43 6z"/>
<path d="M6446 653 c-42 -72 -44 -78 -25 -81 11 -2 29 4 38 12 23 20 51 21 51
0 0 -10 7 -14 23 -12 20 3 22 9 25 81 l3 77 -35 0 c-32 0 -37 -5 -80 -77z m64
-3 c0 -11 -7 -20 -15 -20 -13 0 -14 4 -5 20 6 11 13 20 15 20 3 0 5 -9 5 -20z"/>
<path d="M6276 643 l-24 -78 31 -3 c53 -6 97 7 106 31 21 54 33 106 27 116 -4
6 -31 11 -61 11 l-54 0 -25 -77z m94 38 c0 -11 -29 -35 -35 -29 -10 9 7 38 21
38 8 0 14 -4 14 -9z m-22 -69 c2 -7 -4 -15 -13 -18 -20 -8 -27 -1 -19 20 7 18
25 17 32 -2z"/>
<path d="M6153 698 c-12 -17 -43 -115 -43 -138 0 -15 7 -17 48 -13 59 6 72 10
72 22 0 5 -17 11 -37 13 -35 3 -36 4 -19 21 10 9 29 17 43 17 15 0 23 5 20 13
-2 6 -14 11 -26 10 -15 -2 -21 3 -21 17 0 14 8 19 37 22 61 5 53 28 -10 28
-32 0 -58 -5 -64 -12z"/>
<path d="M5995 692 c-16 -11 -56 -145 -46 -155 14 -14 51 11 51 33 0 27 18 25
22 -2 2 -17 11 -24 32 -26 31 -4 30 -8 10 58 -5 14 -2 20 10 20 22 0 40 48 25
66 -12 15 -87 19 -104 6z m55 -42 c-12 -23 -30 -27 -30 -7 0 17 10 27 27 27
11 0 11 -5 3 -20z"/>
<path d="M5808 683 l-47 -4 -21 -68 c-11 -38 -20 -73 -20 -80 0 -12 76 -16
104 -5 28 11 17 24 -19 24 -32 0 -35 2 -25 19 5 11 22 21 37 23 38 4 42 28 4
28 -45 0 -29 28 20 36 22 4 38 11 36 17 -4 13 -10 14 -69 10z"/>
<path d="M5558 620 c-20 -28 -39 -47 -41 -43 -3 5 -8 25 -12 46 -7 33 -11 38
-33 35 -22 -3 -28 -12 -49 -78 -12 -41 -23 -76 -23 -77 0 -2 11 -3 25 -3 19 0
26 7 34 33 l9 32 7 -32 c10 -43 26 -42 65 5 28 34 30 35 20 9 -13 -37 -14 -37
14 -37 21 0 27 9 45 69 26 86 26 91 -1 91 -16 0 -35 -16 -60 -50z"/>
<path d="M757 642 c-32 -7 -14 -34 53 -83 65 -48 94 -56 149 -40 22 6 13 13
-75 65 -116 69 -104 64 -127 58z"/>
<path d="M5292 633 c-21 -19 -56 -119 -46 -134 10 -16 91 -10 112 9 22 19 57
116 47 132 -10 17 -91 12 -113 -7z m58 -24 c0 -29 -25 -89 -37 -89 -16 0 -16
0 -2 56 7 25 17 44 25 44 8 0 14 -5 14 -11z"/>
<path d="M5132 624 c-32 -22 -29 -59 8 -74 17 -7 30 -16 30 -21 0 -14 -24 -23
-28 -11 -6 18 -52 15 -59 -4 -9 -24 14 -39 58 -38 49 2 81 28 77 63 -2 17 -11
27 -28 31 -14 3 -26 14 -28 23 -4 21 24 23 32 2 3 -8 12 -15 20 -15 18 0 40
36 31 50 -10 16 -88 12 -113 -6z"/>
<path d="M4384 585 c-23 -25 -54 -105 -54 -136 0 -22 43 -32 85 -21 40 11 67
60 70 128 l3 54 -42 0 c-31 0 -46 -6 -62 -25z m50 -52 c-9 -40 -28 -78 -36
-75 -11 3 -11 11 2 60 6 26 16 42 25 42 12 0 14 -7 9 -27z"/>
<path d="M4699 604 c-19 -6 -42 -51 -33 -65 3 -6 17 -14 30 -19 27 -11 33 -40
8 -40 -8 0 -12 5 -9 10 4 6 -6 10 -23 10 -30 0 -46 -18 -33 -38 15 -24 94 -19
122 9 26 26 21 48 -15 68 -32 18 -38 34 -13 39 10 2 17 -3 17 -12 0 -9 6 -16
13 -16 22 0 39 17 35 36 -2 15 -13 19 -43 21 -22 0 -47 -1 -56 -3z"/>
<path d="M4533 588 c-17 -22 -51 -147 -41 -150 5 -2 32 -1 60 2 57 6 80 30 29
30 -21 0 -31 5 -31 15 0 8 9 15 19 15 26 0 51 10 51 21 0 5 -12 9 -26 9 -40 0
-27 34 15 40 59 9 50 30 -12 30 -32 0 -59 -5 -64 -12z"/>
<path d="M448 564 c-10 -22 -9 -32 7 -62 39 -72 131 -105 170 -62 22 24 25 19
-77 98 -37 29 -72 52 -78 52 -6 0 -16 -12 -22 -26z"/>
<path d="M4228 569 c-47 -18 -78 -146 -38 -156 11 -3 20 -9 20 -14 0 -5 7 -9
15 -9 21 0 88 68 80 80 -11 18 -42 11 -58 -12 -23 -35 -29 -17 -12 40 16 53
28 64 39 36 8 -21 50 -14 54 10 7 34 -42 46 -100 25z"/>
<path d="M654 559 c-3 -6 7 -24 23 -41 25 -25 36 -29 73 -26 l44 3 -61 38
c-68 41 -69 42 -79 26z"/>
<path d="M4122 558 c-10 -13 -42 -117 -42 -137 0 -6 11 -11 23 -11 21 0 27 9
45 74 12 41 22 77 22 80 0 11 -38 6 -48 -6z"/>
<path d="M3973 553 c-18 -7 -16 -23 2 -23 17 0 19 -18 6 -52 -4 -13 -11 -36
-15 -51 -6 -26 -5 -28 20 -25 23 3 29 11 46 66 11 36 24 62 32 62 8 0 19 7 26
15 11 13 5 15 -46 14 -33 0 -65 -3 -71 -6z"/>
<path d="M4922 551 c-52 -10 -43 -26 13 -22 55 3 68 8 60 22 -7 10 -22 10 -73
0z"/>
<path d="M3834 542 c-15 -10 -53 -151 -42 -154 5 -2 32 -1 60 2 57 6 80 30 29
30 -44 0 -40 26 4 34 40 8 47 26 10 26 -16 0 -25 6 -25 15 0 16 5 19 53 29 15
4 27 11 27 16 0 11 -100 13 -116 2z"/>
<path d="M3671 523 c-20 -38 -43 -135 -34 -144 15 -15 41 0 52 31 7 22 19 31
49 40 31 8 43 17 50 39 14 39 0 51 -60 51 -35 0 -50 -5 -57 -17z m69 -27 c0
-16 -18 -31 -27 -22 -8 8 5 36 17 36 5 0 10 -6 10 -14z"/>
<path d="M3554 485 c-20 -25 -40 -45 -44 -45 -4 0 -10 18 -14 41 -6 36 -9 40
-33 37 -24 -3 -29 -11 -50 -78 -12 -41 -23 -76 -23 -78 0 -2 12 -2 27 0 19 2
29 10 34 28 l6 25 11 -27 c6 -16 15 -28 19 -28 4 0 20 12 36 28 28 25 29 26
23 5 -6 -20 -4 -23 17 -23 22 0 28 9 50 74 14 41 23 77 19 80 -15 16 -44 2
-78 -39z"/>
<path d="M3278 493 c-18 -21 -49 -123 -42 -135 10 -15 91 -9 112 10 22 19 57
116 47 132 -11 18 -100 12 -117 -7z m57 -61 c-8 -26 -15 -48 -15 -49 0 -2 -8
-3 -19 -3 -17 0 -18 2 -3 48 26 79 60 83 37 4z"/>
<path d="M3126 487 c-19 -14 -59 -124 -50 -139 3 -4 24 -8 47 -8 45 0 87 22
87 46 0 19 -39 18 -46 -1 -4 -8 -13 -15 -21 -15 -16 0 -14 20 7 75 11 30 18
31 36 8 10 -14 17 -16 31 -7 10 6 18 20 18 30 0 15 -9 20 -45 22 -27 2 -53 -3
-64 -11z"/>
</g>
</svg>
